<?xml version="1.0" encoding="UTF-8" standalone="no"?>
<!-- Created with Inkscape (http://www.inkscape.org/) -->

<svg
   width="32.0px"
   height="32.0px"
   viewBox="0 0 32.0 32.0"
   version="1.1"
   id="SVGRoot"
   sodipodi:docname="material.svg"
   inkscape:version="1.2.2 (b0a8486541, 2022-12-01)"
   fill="#fff"
   xmlns:inkscape="http://www.inkscape.org/namespaces/inkscape"
   xmlns:sodipodi="http://sodipodi.sourceforge.net/DTD/sodipodi-0.dtd"
   xmlns="http://www.w3.org/2000/svg"
   xmlns:svg="http://www.w3.org/2000/svg">
  <sodipodi:namedview
     id="namedview1466"
     pagecolor="#505050"
     bordercolor="#ffffff"
     borderopacity="1"
     inkscape:showpageshadow="0"
     inkscape:pageopacity="0"
     inkscape:pagecheckerboard="1"
     inkscape:deskcolor="#505050"
     inkscape:document-units="px"
     showgrid="true"
     inkscape:zoom="26.025828"
     inkscape:cx="13.813201"
     inkscape:cy="16.791012"
     inkscape:window-width="1471"
     inkscape:window-height="1226"
     inkscape:window-x="333"
     inkscape:window-y="50"
     inkscape:window-maximized="0"
     inkscape:current-layer="layer1">
    <inkscape:grid
       type="xygrid"
       id="grid1472" />
  </sodipodi:namedview>
  <defs
     id="defs1461" />
  <g
     inkscape:label="Layer 1"
     inkscape:groupmode="layer"
     id="layer1">
    <path
       id="path341"
       style="fill-opacity:1;stroke-linecap:round"
       d="M 16,0 C 7.163444,0 0,7.163444 0,16 0,24.836556 7.163444,32 16,32 24.836556,32 32,24.836556 32,16 32,7.163444 24.836556,0 16,0 Z m -0.06445,2.3691406 C 19.895534,2.3074036 22,4 22,4 22,4 24.999997,8.5710639 22,17 19.000003,25.428937 14,29 14,29 6.000008,27.000002 -1.260984,18.838689 5,9 8.2812467,3.8437552 12.44144,2.4236144 15.935547,2.3691406 Z"
       sodipodi:nodetypes="sssssscscss" />
  </g>
</svg>
